/videos/ea7ae533-a074-3fe4-830d-497223db2f72/hls1/main/0.ts

{"Protocol":0,"Id":"ea7ae533a0743fe4830d497223db2f72","Path":"/media/0301.\u8BA1\u7B97\u673A\u6027\u80FD\u6307\u6807\u548C\u963F\u59C6\u8FBE\u5C14\u89E3\u51B3\u65B9\u6848.wmv","EncoderPath":null,"EncoderProtocol":null,"Type":0,"Container":"asf","Size":65183013,"Name":"0301.\u8BA1\u7B97\u673A\u6027\u80FD\u6307\u6807\u548C\u963F\u59C6\u8FBE\u5C14\u89E3\u51B3\u65B9\u6848","IsRemote":false,"ETag":"bc912b0b018c80eb818652feadea4904","RunTimeTicks":7565640000,"ReadAtNativeFramerate":false,"IgnoreDts":false,"IgnoreIndex":false,"GenPtsInput":false,"SupportsTranscoding":true,"SupportsDirectStream":true,"SupportsDirectPlay":true,"IsInfiniteStream":false,"RequiresOpening":false,"OpenToken":null,"RequiresClosing":false,"LiveStreamId":null,"BufferMs":null,"RequiresLooping":false,"SupportsProbing":true,"VideoType":0,"IsoType":null,"Video3DFormat":null,"MediaStreams":[{"Codec":"wmv3","CodecTag":"WMV3","Language":"chi","ColorRange":null,"ColorSpace":null,"ColorTransfer":null,"ColorPrimaries":null,"Comment":null,"TimeBase":"1/1000","CodecTimeBase":"1/15","Title":null,"VideoRange":"SDR","localizedUndefined":null,"localizedDefault":null,"localizedForced":null,"DisplayTitle":"1080p WMV3 SDR","NalLengthSize":null,"IsInterlaced":false,"IsAVC":null,"ChannelLayout":null,"BitRate":249379,"BitDepth":null,"RefFrames":1,"PacketLength":null,"Channels":null,"SampleRate":null,"IsDefault":false,"IsForced":false,"Height":1080,"Width":1920,"AverageFrameRate":15,"RealFrameRate":15,"Profile":"Main","Type":1,"AspectRatio":"16:9","Index":0,"Score":null,"IsExternal":false,"DeliveryMethod":null,"DeliveryUrl":null,"IsExternalUrl":null,"IsTextSubtitleStream":false,"SupportsExternalStream":false,"Path":null,"PixelFormat":"yuv420p","Level":-99,"IsAnamorphic":null},{"Codec":"wmav2","CodecTag":null,"Language":"chi","ColorRange":null,"ColorSpace":null,"ColorTransfer":null,"ColorPrimaries":null,"Comment":null,"TimeBase":"1/1000","CodecTimeBase":"1/44100","Title":null,"VideoRange":null,"localizedUndefined":null,"localizedDefault":null,"localizedForced":null,"DisplayTitle":"Chi - WMAV2 - 2 ch","NalLengthSize":null,"IsInterlaced":false,"IsAVC":null,"ChannelLayout":null,"BitRate":320032,"BitDepth":null,"RefFrames":null,"PacketLength":null,"Channels":2,"SampleRate":44100,"IsDefault":false,"IsForced":false,"Height":null,"Width":null,"AverageFrameRate":null,"RealFrameRate":null,"Profile":null,"Type":0,"AspectRatio":null,"Index":1,"Score":null,"IsExternal":false,"DeliveryMethod":null,"DeliveryUrl":null,"IsExternalUrl":null,"IsTextSubtitleStream":false,"SupportsExternalStream":false,"Path":null,"PixelFormat":null,"Level":0,"IsAnamorphic":null}],"MediaAttachments":[],"Formats":[],"Bitrate":689253,"Timestamp":null,"RequiredHttpHeaders":{},"TranscodingUrl":null,"TranscodingSubProtocol":null,"TranscodingContainer":null,"AnalyzeDurationMs":null,"DefaultAudioStreamIndex":null,"DefaultSubtitleStreamIndex":null}

/usr/lib/jellyfin-ffmpeg/ffmpeg -async 1 -f asf -i file:"/media/0301.计算机性能指标和阿姆达尔解决方案.wmv" -map_metadata -1 -map_chapters -1 -threads 0 -map 0:0 -map 0:1 -map -0:s -codec:v:0 libx264 -pix_fmt yuv420p -preset veryfast -crf 23 -maxrate 1870344 -bufsize 3740688 -profile:v:0 high -level 41 -x264opts:0 subme=0:me_range=4:rc_lookahead=10:me=dia:no_chroma_me:8x8dct=0:partitions=none  -force_key_frames:0 "expr:gte(t,0+n_forced*3)" -vf "scale=trunc(min(max(iw\,ih*dar)\,min(1920\,1080*dar))/2)*2:trunc(min(max(iw/dar\,ih)\,min(1920/dar\,1080))/2)*2" -start_at_zero -vsync -1 -codec:a:0 aac -ac 2 -ab 384000 -copyts -avoid_negative_ts disabled -max_muxing_queue_size 2048 -f hls -max_delay 5000000 -hls_time 3 -hls_segment_type mpegts -start_number 0 -hls_segment_filename "/config/transcodes/814947a12b1752b7fe502c06f18e612c%d.ts" -hls_playlist_type vod -hls_list_size 0 -y "/config/transcodes/814947a12b1752b7fe502c06f18e612c.m3u8"


ffmpeg version 4.3.2-Jellyfin Copyright (c) 2000-2021 the FFmpeg developers
  built with gcc 8 (Debian 8.3.0-6)
  configuration: --prefix=/usr/lib/jellyfin-ffmpeg --target-os=linux --extra-version=Jellyfin --disable-doc --disable-ffplay --disable-shared --disable-libxcb --disable-sdl2 --disable-xlib --enable-gpl --enable-version3 --enable-static --enable-libfontconfig --enable-fontconfig --enable-gmp --enable-gnutls --enable-libass --enable-libbluray --enable-libdrm --enable-libfreetype --enable-libfribidi --enable-libmp3lame --enable-libopus --enable-libtheora --enable-libvorbis --enable-libdav1d --enable-libwebp --enable-libvpx --enable-libx264 --enable-libx265 --enable-libzvbi --enable-libzimg --arch=amd64 --enable-opencl --enable-vaapi --enable-amf --enable-libmfx --enable-vdpau --enable-cuda --enable-cuda-llvm --enable-cuvid --enable-nvenc --enable-nvdec --enable-ffnvcodec
  libavutil      56. 51.100 / 56. 51.100
  libavcodec     58. 91.100 / 58. 91.100
  libavformat    58. 45.100 / 58. 45.100
  libavdevice    58. 10.100 / 58. 10.100
  libavfilter     7. 85.100 /  7. 85.100
  libswscale      5.  7.100 /  5.  7.100
  libswresample   3.  7.100 /  3.  7.100
  libpostproc    55.  7.100 / 55.  7.100
[wmv3 @ 0x55e09513d4c0] Extra data: 8 bits left, value: 20
Guessed Channel Layout for Input Stream #0.1 : stereo
Input #0, asf, from 'file:/media/0301.计算机性能指标和阿姆达尔解决方案.wmv':
  Metadata:
    WMFSDKNeeded    : 0.0.0.0000
    DeviceConformanceTemplate: L3
    WMFSDKVersion   : 12.0.10011.16384
    IsVBR           : 1
    VBR Peak        : 1835642
    Buffer Average  : 70133
  Duration: 00:12:36.56, start: 0.000000, bitrate: 689 kb/s
    Stream #0:0(chi): Video: wmv3 (Main) (WMV3 / 0x33564D57), yuv420p, 1920x1080, 249 kb/s, 15 fps, 15 tbr, 1k tbn, 1k tbc
    Stream #0:1(chi): Audio: wmav2 (a[1][0][0] / 0x0161), 44100 Hz, stereo, fltp, 320 kb/s
[wmv3 @ 0x55e09513ef80] Extra data: 8 bits left, value: 20
Stream mapping:
  Stream #0:0 -> #0:0 (wmv3 (native) -> h264 (libx264))
  Stream #0:1 -> #0:1 (wmav2 (native) -> aac (native))
Press [q] to stop, [?] for help
[libx264 @ 0x55e09514d500] using cpu capabilities: MMX2 SSE2Fast SSSE3 SSE4.2 AVX FMA3 BMI2 AVX2
[libx264 @ 0x55e09514d500] profile Main, level 4.1
[libx264 @ 0x55e09514d500] 264 - core 155 r2917 0a84d98 - H.264/MPEG-4 AVC codec - Copyleft 2003-2018 - http://www.videolan.org/x264.html - options: cabac=1 ref=1 deblock=1:0:0 analyse=0x1:0 me=dia subme=0 psy=1 psy_rd=1.00:0.00 mixed_ref=0 me_range=4 chroma_me=0 trellis=0 8x8dct=0 cqm=0 deadzone=21,11 fast_pskip=1 chroma_qp_offset=0 threads=9 lookahead_threads=1 sliced_threads=0 nr=0 decimate=1 interlaced=0 bluray_compat=0 constrained_intra=0 bframes=3 b_pyramid=2 b_adapt=1 b_bias=0 direct=1 weightb=1 open_gop=0 weightp=1 keyint=250 keyint_min=15 scenecut=40 intra_refresh=0 rc_lookahead=10 rc=crf mbtree=1 crf=23.0 qcomp=0.60 qpmin=0 qpmax=69 qpstep=4 vbv_maxrate=1870 vbv_bufsize=3740 crf_max=0.0 nal_hrd=none filler=0 ip_ratio=1.40 aq=1:1.00
-async is forwarded to lavfi similarly to -af aresample=async=1:min_hard_comp=0.100000:first_pts=0.
Output #0, hls, to '/config/transcodes/814947a12b1752b7fe502c06f18e612c.m3u8':
  Metadata:
    encoder         : Lavf58.45.100
    Stream #0:0: Video: h264 (libx264), yuv420p(progressive), 1920x1080, q=-1--1, 15 fps, 90k tbn, 15 tbc
    Metadata:
      encoder         : Lavc58.91.100 libx264
    Side data:
      cpb: bitrate max/min/avg: 1870000/0/0 buffer size: 3740000 vbv_delay: N/A
    Stream #0:1: Audio: aac (LC), 44100 Hz, stereo, fltp, 384 kb/s
    Metadata:
      encoder         : Lavc58.91.100 aac
frame=   65 fps=0.0 q=27.0 size=N/A time=00:00:02.73 bitrate=N/A speed=5.47x    
[hls @ 0x55e0951463c0] Opening '/config/transcodes/814947a12b1752b7fe502c06f18e612c0.ts' for writing
frame=  110 fps=110 q=27.0 size=N/A time=00:00:05.71 bitrate=N/A speed=5.69x    
[hls @ 0x55e0951463c0] Opening '/config/transcodes/814947a12b1752b7fe502c06f18e612c1.ts' for writing
[hls @ 0x55e0951463c0] Opening '/config/transcodes/814947a12b1752b7fe502c06f18e612c2.ts' for writing
frame=  163 fps=108 q=27.0 size=N/A time=00:00:09.24 bitrate=N/A speed=6.15x    
[hls @ 0x55e0951463c0] Opening '/config/transcodes/814947a12b1752b7fe502c06f18e612c3.ts' for writing
frame=  218 fps=109 q=27.0 size=N/A time=00:00:12.86 bitrate=N/A speed=6.42x    
[hls @ 0x55e0951463c0] Opening '/config/transcodes/814947a12b1752b7fe502c06f18e612c4.ts' for writing
frame=  268 fps=107 q=27.0 size=N/A time=00:00:16.48 bitrate=N/A speed=6.56x    
[hls @ 0x55e0951463c0] Opening '/config/transcodes/814947a12b1752b7fe502c06f18e612c5.ts' for writing
frame=  325 fps=108 q=27.0 size=N/A time=00:00:20.00 bitrate=N/A speed=6.63x    
[hls @ 0x55e0951463c0] Opening '/config/transcodes/814947a12b1752b7fe502c06f18e612c6.ts' for writing
frame=  378 fps=107 q=27.0 size=N/A time=00:00:23.73 bitrate=N/A speed=6.73x    
[hls @ 0x55e0951463c0] Opening '/config/transcodes/814947a12b1752b7fe502c06f18e612c7.ts' for writing
[hls @ 0x55e0951463c0] Opening '/config/transcodes/814947a12b1752b7fe502c06f18e612c8.ts' for writing
frame=  434 fps=108 q=27.0 size=N/A time=00:00:27.44 bitrate=N/A speed=6.81x    
[hls @ 0x55e0951463c0] Opening '/config/transcodes/814947a12b1752b7fe502c06f18e612c9.ts' for writing
frame=  492 fps=108 q=27.0 size=N/A time=00:00:31.34 bitrate=N/A speed= 6.9x    
[hls @ 0x55e0951463c0] Opening '/config/transcodes/814947a12b1752b7fe502c06f18e612c10.ts' for writing
frame=  544 fps=108 q=27.0 size=N/A time=00:00:34.69 bitrate=N/A speed=6.88x    
[hls @ 0x55e0951463c0] Opening '/config/transcodes/814947a12b1752b7fe502c06f18e612c11.ts' for writing
frame=  599 fps=108 q=27.0 size=N/A time=00:00:38.40 bitrate=N/A speed=6.92x    
[hls @ 0x55e0951463c0] Opening '/config/transcodes/814947a12b1752b7fe502c06f18e612c12.ts' for writing
[hls @ 0x55e0951463c0] Opening '/config/transcodes/814947a12b1752b7fe502c06f18e612c13.ts' for writing
frame=  659 fps=109 q=27.0 size=N/A time=00:00:42.49 bitrate=N/A speed=7.02x    
[hls @ 0x55e0951463c0] Opening '/config/transcodes/814947a12b1752b7fe502c06f18e612c14.ts' for writing
frame=  715 fps=109 q=27.0 size=N/A time=00:00:46.02 bitrate=N/A speed=7.02x    
[hls @ 0x55e0951463c0] Opening '/config/transcodes/814947a12b1752b7fe502c06f18e612c15.ts' for writing
frame=  771 fps=109 q=27.0 size=N/A time=00:00:49.73 bitrate=N/A speed=7.05x    
[hls @ 0x55e0951463c0] Opening '/config/transcodes/814947a12b1752b7fe502c06f18e612c16.ts' for writing
frame=  829 fps=110 q=27.0 size=N/A time=00:00:53.60 bitrate=N/A speed= 7.1x    
[hls @ 0x55e0951463c0] Opening '/config/transcodes/814947a12b1752b7fe502c06f18e612c17.ts' for writing
[hls @ 0x55e0951463c0] Opening '/config/transcodes/814947a12b1752b7fe502c06f18e612c18.ts' for writing
frame=  881 fps=109 q=27.0 size=N/A time=00:00:57.35 bitrate=N/A speed=7.12x    
[hls @ 0x55e0951463c0] Opening '/config/transcodes/814947a12b1752b7fe502c06f18e612c19.ts' for writing
frame=  939 fps=110 q=27.0 size=N/A time=00:01:01.06 bitrate=N/A speed=7.14x    
[hls @ 0x55e0951463c0] Opening '/config/transcodes/814947a12b1752b7fe502c06f18e612c20.ts' for writing
frame=  984 fps=109 q=27.0 size=N/A time=00:01:04.04 bitrate=N/A speed=7.07x    
[hls @ 0x55e0951463c0] Opening '/config/transcodes/814947a12b1752b7fe502c06f18e612c21.ts' for writing
frame= 1037 fps=108 q=27.0 size=N/A time=00:01:07.57 bitrate=N/A speed=7.06x    
[hls @ 0x55e0951463c0] Opening '/config/transcodes/814947a12b1752b7fe502c06f18e612c22.ts' for writing
frame= 1092 fps=108 q=27.0 size=N/A time=00:01:11.13 bitrate=N/A speed=7.06x    
[hls @ 0x55e0951463c0] Opening '/config/transcodes/814947a12b1752b7fe502c06f18e612c23.ts' for writing
frame= 1147 fps=108 q=27.0 size=N/A time=00:01:14.81 bitrate=N/A speed=7.08x    
[hls @ 0x55e0951463c0] Opening '/config/transcodes/814947a12b1752b7fe502c06f18e612c24.ts' for writing
[hls @ 0x55e0951463c0] Opening '/config/transcodes/814947a12b1752b7fe502c06f18e612c25.ts' for writing
frame= 1200 fps=108 q=27.0 size=N/A time=00:01:18.52 bitrate=N/A speed=7.08x    
[hls @ 0x55e0951463c0] Opening '/config/transcodes/814947a12b1752b7fe502c06f18e612c26.ts' for writing
frame= 1256 fps=108 q=27.0 size=N/A time=00:01:22.06 bitrate=N/A speed=7.08x    
[hls @ 0x55e0951463c0] Opening '/config/transcodes/814947a12b1752b7fe502c06f18e612c27.ts' for writing
frame= 1314 fps=109 q=27.0 size=N/A time=00:01:26.14 bitrate=N/A speed=7.12x    
[hls @ 0x55e0951463c0] Opening '/config/transcodes/814947a12b1752b7fe502c06f18e612c28.ts' for writing
frame= 1371 fps=109 q=27.0 size=N/A time=00:01:29.73 bitrate=N/A speed=7.12x    
[hls @ 0x55e0951463c0] Opening '/config/transcodes/814947a12b1752b7fe502c06f18e612c29.ts' for writing
[hls @ 0x55e0951463c0] Opening '/config/transcodes/814947a12b1752b7fe502c06f18e612c30.ts' for writing
frame= 1423 fps=108 q=27.0 size=N/A time=00:01:33.39 bitrate=N/A speed=7.12x    
[hls @ 0x55e0951463c0] Opening '/config/transcodes/814947a12b1752b7fe502c06f18e612c31.ts' for writing
frame= 1481 fps=109 q=27.0 size=N/A time=00:01:37.29 bitrate=N/A speed=7.14x    
[hls @ 0x55e0951463c0] Opening '/config/transcodes/814947a12b1752b7fe502c06f18e612c32.ts' for writing
frame= 1531 fps=108 q=27.0 size=N/A time=00:01:40.63 bitrate=N/A speed=7.12x    
[hls @ 0x55e0951463c0] Opening '/config/transcodes/814947a12b1752b7fe502c06f18e612c33.ts' for writing
frame= 1584 fps=108 q=27.0 size=N/A time=00:01:44.16 bitrate=N/A speed=7.12x    
[hls @ 0x55e0951463c0] Opening '/config/transcodes/814947a12b1752b7fe502c06f18e612c34.ts' for writing
[hls @ 0x55e0951463c0] Opening '/config/transcodes/814947a12b1752b7fe502c06f18e612c35.ts' for writing
frame= 1646 fps=109 q=27.0 size=N/A time=00:01:48.06 bitrate=N/A speed=7.14x    
frame= 1675 fps=107 q=27.0 size=N/A time=00:01:50.29 bitrate=N/A speed=7.05x    
[hls @ 0x55e0951463c0] Opening '/config/transcodes/814947a12b1752b7fe502c06f18e612c36.ts' for writing
frame= 1724 fps=107 q=27.0 size=N/A time=00:01:53.45 bitrate=N/A speed=7.02x    
[hls @ 0x55e0951463c0] Opening '/config/transcodes/814947a12b1752b7fe502c06f18e612c37.ts' for writing
frame= 1774 fps=106 q=27.0 size=N/A time=00:01:56.60 bitrate=N/A speed=   7x    
[hls @ 0x55e0951463c0] Opening '/config/transcodes/814947a12b1752b7fe502c06f18e612c38.ts' for writing
[hls @ 0x55e0951463c0] Opening '/config/transcodes/814947a12b1752b7fe502c06f18e612c39.ts' for writing
frame= 1825 fps=106 q=27.0 size=N/A time=00:02:00.14 bitrate=N/A speed=   7x    
[hls @ 0x55e0951463c0] Opening '/config/transcodes/814947a12b1752b7fe502c06f18e612c40.ts' for writing
frame= 1883 fps=107 q=27.0 size=N/A time=00:02:04.04 bitrate=N/A speed=7.02x    
[hls @ 0x55e0951463c0] Opening '/config/transcodes/814947a12b1752b7fe502c06f18e612c41.ts' for writing
frame= 1916 fps=105 q=27.0 size=N/A time=00:02:06.27 bitrate=N/A speed=6.94x    
[hls @ 0x55e0951463c0] Opening '/config/transcodes/814947a12b1752b7fe502c06f18e612c42.ts' for writing
frame= 1966 fps=105 q=27.0 size=N/A time=00:02:09.61 bitrate=N/A speed=6.93x    
[hls @ 0x55e0951463c0] Opening '/config/transcodes/814947a12b1752b7fe502c06f18e612c43.ts' for writing
frame= 2017 fps=105 q=27.0 size=N/A time=00:02:12.95 bitrate=N/A speed=6.92x    
[hls @ 0x55e0951463c0] Opening '/config/transcodes/814947a12b1752b7fe502c06f18e612c44.ts' for writing
frame= 2059 fps=104 q=27.0 size=N/A time=00:02:15.92 bitrate=N/A speed=6.89x    
[hls @ 0x55e0951463c0] Opening '/config/transcodes/814947a12b1752b7fe502c06f18e612c45.ts' for writing
frame= 2100 fps=104 q=27.0 size=N/A time=00:02:18.71 bitrate=N/A speed=6.86x    
[hls @ 0x55e0951463c0] Opening '/config/transcodes/814947a12b1752b7fe502c06f18e612c46.ts' for writing
frame= 2142 fps=103 q=27.0 size=N/A time=00:02:21.31 bitrate=N/A speed=6.81x    
frame= 2173 fps=102 q=27.0 size=N/A time=00:02:23.20 bitrate=N/A speed=6.74x    
[hls @ 0x55e0951463c0] Opening '/config/transcodes/814947a12b1752b7fe502c06f18e612c47.ts' for writing
frame= 2195 fps=101 q=27.0 size=N/A time=00:02:24.84 bitrate=N/A speed=6.66x    
[hls @ 0x55e0951463c0] Opening '/config/transcodes/814947a12b1752b7fe502c06f18e612c48.ts' for writing
frame= 2256 fps=101 q=27.0 size=N/A time=00:02:28.73 bitrate=N/A speed=6.68x    
[hls @ 0x55e0951463c0] Opening '/config/transcodes/814947a12b1752b7fe502c06f18e612c49.ts' for writing
frame= 2299 fps=101 q=27.0 size=N/A time=00:02:31.90 bitrate=N/A speed=6.67x    
[hls @ 0x55e0951463c0] Opening '/config/transcodes/814947a12b1752b7fe502c06f18e612c50.ts' for writing
frame= 2348 fps=101 q=27.0 size=N/A time=00:02:35.06 bitrate=N/A speed=6.66x    
[hls @ 0x55e0951463c0] Opening '/config/transcodes/814947a12b1752b7fe502c06f18e612c51.ts' for writing
frame= 2401 fps=101 q=24.0 size=N/A time=00:02:38.40 bitrate=N/A speed=6.66x    
[hls @ 0x55e0951463c0] Opening '/config/transcodes/814947a12b1752b7fe502c06f18e612c52.ts' for writing
frame= 2448 fps=101 q=27.0 size=N/A time=00:02:41.75 bitrate=N/A speed=6.66x    
[hls @ 0x55e0951463c0] Opening '/config/transcodes/814947a12b1752b7fe502c06f18e612c53.ts' for writing
[hls @ 0x55e0951463c0] Opening '/config/transcodes/814947a12b1752b7fe502c06f18e612c54.ts' for writing
frame= 2504 fps=101 q=27.0 size=N/A time=00:02:45.65 bitrate=N/A speed=6.68x    
[hls @ 0x55e0951463c0] Opening '/config/transcodes/814947a12b1752b7fe502c06f18e612c55.ts' for writing
frame= 2555 fps=101 q=27.0 size=N/A time=00:02:48.66 bitrate=N/A speed=6.67x    
[hls @ 0x55e0951463c0] Opening '/config/transcodes/814947a12b1752b7fe502c06f18e612c56.ts' for writing
frame= 2604 fps=101 q=27.0 size=N/A time=00:02:51.93 bitrate=N/A speed=6.67x    
[hls @ 0x55e0951463c0] Opening '/config/transcodes/814947a12b1752b7fe502c06f18e612c57.ts' for writing
frame= 2663 fps=101 q=27.0 size=N/A time=00:02:56.23 bitrate=N/A speed= 6.7x    
[hls @ 0x55e0951463c0] Opening '/config/transcodes/814947a12b1752b7fe502c06f18e612c58.ts' for writing
frame= 2718 fps=101 q=27.0 size=N/A time=00:02:59.58 bitrate=N/A speed= 6.7x    
[hls @ 0x55e0951463c0] Opening '/config/transcodes/814947a12b1752b7fe502c06f18e612c59.ts' for writing
frame= 2766 fps=101 q=27.0 size=N/A time=00:03:02.92 bitrate=N/A speed= 6.7x    
[hls @ 0x55e0951463c0] Opening '/config/transcodes/814947a12b1752b7fe502c06f18e612c60.ts' for writing
[hls @ 0x55e0951463c0] Opening '/config/transcodes/814947a12b1752b7fe502c06f18e612c61.ts' for writing
frame= 2816 fps=101 q=27.0 size=N/A time=00:03:06.27 bitrate=N/A speed=6.69x    
[hls @ 0x55e0951463c0] Opening '/config/transcodes/814947a12b1752b7fe502c06f18e612c62.ts' for writing
frame= 2864 fps=101 q=27.0 size=N/A time=00:03:09.42 bitrate=N/A speed=6.68x    
[hls @ 0x55e0951463c0] Opening '/config/transcodes/814947a12b1752b7fe502c06f18e612c63.ts' for writing
frame= 2922 fps=101 q=27.0 size=N/A time=00:03:13.32 bitrate=N/A speed= 6.7x    
[hls @ 0x55e0951463c0] Opening '/config/transcodes/814947a12b1752b7fe502c06f18e612c64.ts' for writing
frame= 2971 fps=101 q=27.0 size=N/A time=00:03:16.67 bitrate=N/A speed= 6.7x    
[hls @ 0x55e0951463c0] Opening '/config/transcodes/814947a12b1752b7fe502c06f18e612c65.ts' for writing
frame= 3015 fps=101 q=27.0 size=N/A time=00:03:19.64 bitrate=N/A speed=6.68x    
[hls @ 0x55e0951463c0] Opening '/config/transcodes/814947a12b1752b7fe502c06f18e612c66.ts' for writing
frame= 3060 fps=101 q=27.0 size=N/A time=00:03:22.61 bitrate=N/A speed=6.67x    
[hls @ 0x55e0951463c0] Opening '/config/transcodes/814947a12b1752b7fe502c06f18e612c67.ts' for writing
frame= 3105 fps=101 q=27.0 size=N/A time=00:03:25.58 bitrate=N/A speed=6.66x    
[hls @ 0x55e0951463c0] Opening '/config/transcodes/814947a12b1752b7fe502c06f18e612c68.ts' for writing
frame= 3140 fps=100 q=27.0 size=N/A time=00:03:27.81 bitrate=N/A speed=6.62x    
[hls @ 0x55e0951463c0] Opening '/config/transcodes/814947a12b1752b7fe502c06f18e612c69.ts' for writing
frame= 3174 fps= 99 q=27.0 size=N/A time=00:03:30.23 bitrate=N/A speed=6.59x    
frame= 3209 fps= 99 q=27.0 size=N/A time=00:03:32.46 bitrate=N/A speed=6.55x    
[hls @ 0x55e0951463c0] Opening '/config/transcodes/814947a12b1752b7fe502c06f18e612c70.ts' for writing
[hls @ 0x55e0951463c0] Opening '/config/transcodes/814947a12b1752b7fe502c06f18e612c71.ts' for writing
frame= 3265 fps= 99 q=27.0 size=N/A time=00:03:36.00 bitrate=N/A speed=6.56x    
[hls @ 0x55e0951463c0] Opening '/config/transcodes/814947a12b1752b7fe502c06f18e612c72.ts' for writing
frame= 3315 fps= 99 q=27.0 size=N/A time=00:03:39.52 bitrate=N/A speed=6.57x    
[hls @ 0x55e0951463c0] Opening '/config/transcodes/814947a12b1752b7fe502c06f18e612c73.ts' for writing
frame= 3366 fps= 99 q=27.0 size=N/A time=00:03:43.05 bitrate=N/A speed=6.57x    
[hls @ 0x55e0951463c0] Opening '/config/transcodes/814947a12b1752b7fe502c06f18e612c74.ts' for writing
frame= 3421 fps= 99 q=27.0 size=N/A time=00:03:46.58 bitrate=N/A speed=6.58x    
[hls @ 0x55e0951463c0] Opening '/config/transcodes/814947a12b1752b7fe502c06f18e612c75.ts' for writing
frame= 3484 fps=100 q=27.0 size=N/A time=00:03:50.85 bitrate=N/A speed=6.61x    
[hls @ 0x55e0951463c0] Opening '/config/transcodes/814947a12b1752b7fe502c06f18e612c76.ts' for writing
[hls @ 0x55e0951463c0] Opening '/config/transcodes/814947a12b1752b7fe502c06f18e612c77.ts' for writing
frame= 3542 fps=100 q=27.0 size=N/A time=00:03:54.75 bitrate=N/A speed=6.62x    
[hls @ 0x55e0951463c0] Opening '/config/transcodes/814947a12b1752b7fe502c06f18e612c78.ts' for writing
frame= 3599 fps=100 q=27.0 size=N/A time=00:03:58.65 bitrate=N/A speed=6.64x    
[hls @ 0x55e0951463c0] Opening '/config/transcodes/814947a12b1752b7fe502c06f18e612c79.ts' for writing
frame= 3658 fps=100 q=27.0 size=N/A time=00:04:02.20 bitrate=N/A speed=6.64x    
[hls @ 0x55e0951463c0] Opening '/config/transcodes/814947a12b1752b7fe502c06f18e612c80.ts' for writing
frame= 3702 fps=100 q=27.0 size=N/A time=00:04:05.34 bitrate=N/A speed=6.64x    
[hls @ 0x55e0951463c0] Opening '/config/transcodes/814947a12b1752b7fe502c06f18e612c81.ts' for writing
frame= 3753 fps=100 q=27.0 size=N/A time=00:04:08.68 bitrate=N/A speed=6.64x    
[hls @ 0x55e0951463c0] Opening '/config/transcodes/814947a12b1752b7fe502c06f18e612c82.ts' for writing
frame= 3793 fps=100 q=27.0 size=N/A time=00:04:11.47 bitrate=N/A speed=6.62x    
[hls @ 0x55e0951463c0] Opening '/config/transcodes/814947a12b1752b7fe502c06f18e612c83.ts' for writing
[hls @ 0x55e0951463c0] Opening '/config/transcodes/814947a12b1752b7fe502c06f18e612c84.ts' for writing
frame= 3850 fps=100 q=27.0 size=N/A time=00:04:15.18 bitrate=N/A speed=6.63x    
[hls @ 0x55e0951463c0] Opening '/config/transcodes/814947a12b1752b7fe502c06f18e612c85.ts' for writing
frame= 3900 fps=100 q=27.0 size=N/A time=00:04:18.33 bitrate=N/A speed=6.63x    
[hls @ 0x55e0951463c0] Opening '/config/transcodes/814947a12b1752b7fe502c06f18e612c86.ts' for writing
frame= 3950 fps=100 q=27.0 size=N/A time=00:04:21.87 bitrate=N/A speed=6.63x    
[hls @ 0x55e0951463c0] Opening '/config/transcodes/814947a12b1752b7fe502c06f18e612c87.ts' for writing
frame= 3997 fps=100 q=27.0 size=N/A time=00:04:24.84 bitrate=N/A speed=6.62x    
[hls @ 0x55e0951463c0] Opening '/config/transcodes/814947a12b1752b7fe502c06f18e612c88.ts' for writing
frame= 4052 fps=100 q=27.0 size=N/A time=00:04:28.56 bitrate=N/A speed=6.63x    
[hls @ 0x55e0951463c0] Opening '/config/transcodes/814947a12b1752b7fe502c06f18e612c89.ts' for writing
frame= 4097 fps=100 q=27.0 size=N/A time=00:04:31.71 bitrate=N/A speed=6.63x    
[hls @ 0x55e0951463c0] Opening '/config/transcodes/814947a12b1752b7fe502c06f18e612c90.ts' for writing
frame= 4150 fps=100 q=27.0 size=N/A time=00:04:35.00 bitrate=N/A speed=6.62x    
[hls @ 0x55e0951463c0] Opening '/config/transcodes/814947a12b1752b7fe502c06f18e612c91.ts' for writing
frame= 4201 fps=100 q=24.0 size=N/A time=00:04:38.77 bitrate=N/A speed=6.63x    
[hls @ 0x55e0951463c0] Opening '/config/transcodes/814947a12b1752b7fe502c06f18e612c92.ts' for writing
[hls @ 0x55e0951463c0] Opening '/config/transcodes/814947a12b1752b7fe502c06f18e612c93.ts' for writing
frame= 4254 fps=100 q=27.0 size=N/A time=00:04:42.12 bitrate=N/A speed=6.63x    
[hls @ 0x55e0951463c0] Opening '/config/transcodes/814947a12b1752b7fe502c06f18e612c94.ts' for writing
frame= 4301 fps=100 q=27.0 size=N/A time=00:04:45.28 bitrate=N/A speed=6.63x    
[hls @ 0x55e0951463c0] Opening '/config/transcodes/814947a12b1752b7fe502c06f18e612c95.ts' for writing
frame= 4351 fps=100 q=27.0 size=N/A time=00:04:48.62 bitrate=N/A speed=6.63x    
[hls @ 0x55e0951463c0] Opening '/config/transcodes/814947a12b1752b7fe502c06f18e612c96.ts' for writing
frame= 4402 fps=100 q=27.0 size=N/A time=00:04:51.96 bitrate=N/A speed=6.63x    
[hls @ 0x55e0951463c0] Opening '/config/transcodes/814947a12b1752b7fe502c06f18e612c97.ts' for writing
frame= 4453 fps=100 q=27.0 size=N/A time=00:04:55.49 bitrate=N/A speed=6.63x    
[hls @ 0x55e0951463c0] Opening '/config/transcodes/814947a12b1752b7fe502c06f18e612c98.ts' for writing
frame= 4510 fps=100 q=27.0 size=N/A time=00:04:59.00 bitrate=N/A speed=6.64x    
[hls @ 0x55e0951463c0] Opening '/config/transcodes/814947a12b1752b7fe502c06f18e612c99.ts' for writing
frame= 4554 fps=100 q=27.0 size=N/A time=00:05:02.18 bitrate=N/A speed=6.63x    
[hls @ 0x55e0951463c0] Opening '/config/transcodes/814947a12b1752b7fe502c06f18e612c100.ts' for writing
frame= 4596 fps=100 q=27.0 size=N/A time=00:05:04.97 bitrate=N/A speed=6.62x    
[hls @ 0x55e0951463c0] Opening '/config/transcodes/814947a12b1752b7fe502c06f18e612c101.ts' for writing
frame= 4649 fps=100 q=27.0 size=N/A time=00:05:08.31 bitrate=N/A speed=6.62x    
[hls @ 0x55e0951463c0] Opening '/config/transcodes/814947a12b1752b7fe502c06f18e612c102.ts' for writing
frame= 4701 fps=100 q=27.0 size=N/A time=00:05:11.73 bitrate=N/A speed=6.62x    
[hls @ 0x55e0951463c0] Opening '/config/transcodes/814947a12b1752b7fe502c06f18e612c103.ts' for writing
[hls @ 0x55e0951463c0] Opening '/config/transcodes/814947a12b1752b7fe502c06f18e612c104.ts' for writing
frame= 4754 fps=100 q=27.0 size=N/A time=00:05:15.55 bitrate=N/A speed=6.63x    
[hls @ 0x55e0951463c0] Opening '/config/transcodes/814947a12b1752b7fe502c06f18e612c105.ts' for writing
frame= 4812 fps=100 q=27.0 size=N/A time=00:05:19.27 bitrate=N/A speed=6.64x    
[hls @ 0x55e0951463c0] Opening '/config/transcodes/814947a12b1752b7fe502c06f18e612c106.ts' for writing
frame= 4867 fps=100 q=27.0 size=N/A time=00:05:22.80 bitrate=N/A speed=6.64x    
[hls @ 0x55e0951463c0] Opening '/config/transcodes/814947a12b1752b7fe502c06f18e612c107.ts' for writing
frame= 4912 fps=100 q=27.0 size=N/A time=00:05:25.96 bitrate=N/A speed=6.64x    
[hls @ 0x55e0951463c0] Opening '/config/transcodes/814947a12b1752b7fe502c06f18e612c108.ts' for writing
frame= 4965 fps=100 q=27.0 size=N/A time=00:05:29.49 bitrate=N/A speed=6.64x    
[hls @ 0x55e0951463c0] Opening '/config/transcodes/814947a12b1752b7fe502c06f18e612c109.ts' for writing
frame= 5012 fps=100 q=27.0 size=N/A time=00:05:32.83 bitrate=N/A speed=6.64x    
[hls @ 0x55e0951463c0] Opening '/config/transcodes/814947a12b1752b7fe502c06f18e612c110.ts' for writing
frame= 5055 fps=100 q=27.0 size=N/A time=00:05:35.62 bitrate=N/A speed=6.63x    
[hls @ 0x55e0951463c0] Opening '/config/transcodes/814947a12b1752b7fe502c06f18e612c111.ts' for writing
frame= 5108 fps=100 q=27.0 size=N/A time=00:05:38.96 bitrate=N/A speed=6.63x    
[hls @ 0x55e0951463c0] Opening '/config/transcodes/814947a12b1752b7fe502c06f18e612c112.ts' for writing
[hls @ 0x55e0951463c0] Opening '/config/transcodes/814947a12b1752b7fe502c06f18e612c113.ts' for writing
frame= 5165 fps=100 q=27.0 size=N/A time=00:05:42.86 bitrate=N/A speed=6.64x    
[hls @ 0x55e0951463c0] Opening '/config/transcodes/814947a12b1752b7fe502c06f18e612c114.ts' for writing
frame= 5219 fps=100 q=27.0 size=N/A time=00:05:46.58 bitrate=N/A speed=6.65x    
[hls @ 0x55e0951463c0] Opening '/config/transcodes/814947a12b1752b7fe502c06f18e612c115.ts' for writing
frame= 5274 fps=100 q=27.0 size=N/A time=00:05:49.93 bitrate=N/A speed=6.65x    
[hls @ 0x55e0951463c0] Opening '/config/transcodes/814947a12b1752b7fe502c06f18e612c116.ts' for writing
frame= 5327 fps=100 q=27.0 size=N/A time=00:05:53.46 bitrate=N/A speed=6.65x    
[hls @ 0x55e0951463c0] Opening '/config/transcodes/814947a12b1752b7fe502c06f18e612c117.ts' for writing
frame= 5377 fps=100 q=27.0 size=N/A time=00:05:56.98 bitrate=N/A speed=6.65x    
[hls @ 0x55e0951463c0] Opening '/config/transcodes/814947a12b1752b7fe502c06f18e612c118.ts' for writing
[hls @ 0x55e0951463c0] Opening '/config/transcodes/814947a12b1752b7fe502c06f18e612c119.ts' for writing
frame= 5428 fps=100 q=27.0 size=N/A time=00:06:00.51 bitrate=N/A speed=6.66x    
[hls @ 0x55e0951463c0] Opening '/config/transcodes/814947a12b1752b7fe502c06f18e612c120.ts' for writing
frame= 5486 fps=100 q=27.0 size=N/A time=00:06:04.22 bitrate=N/A speed=6.66x    
[hls @ 0x55e0951463c0] Opening '/config/transcodes/814947a12b1752b7fe502c06f18e612c121.ts' for writing
frame= 5538 fps=100 q=27.0 size=N/A time=00:06:07.57 bitrate=N/A speed=6.66x    
[hls @ 0x55e0951463c0] Opening '/config/transcodes/814947a12b1752b7fe502c06f18e612c122.ts' for writing
frame= 5585 fps=100 q=27.0 size=N/A time=00:06:10.91 bitrate=N/A speed=6.66x    
[hls @ 0x55e0951463c0] Opening '/config/transcodes/814947a12b1752b7fe502c06f18e612c123.ts' for writing
frame= 5638 fps=100 q=27.0 size=N/A time=00:06:14.25 bitrate=N/A speed=6.66x    
[hls @ 0x55e0951463c0] Opening '/config/transcodes/814947a12b1752b7fe502c06f18e612c124.ts' for writing
frame= 5688 fps=100 q=27.0 size=N/A time=00:06:17.60 bitrate=N/A speed=6.66x    
[hls @ 0x55e0951463c0] Opening '/config/transcodes/814947a12b1752b7fe502c06f18e612c125.ts' for writing
[hls @ 0x55e0951463c0] Opening '/config/transcodes/814947a12b1752b7fe502c06f18e612c126.ts' for writing
frame= 5740 fps=100 q=27.0 size=N/A time=00:06:21.00 bitrate=N/A speed=6.66x    
[hls @ 0x55e0951463c0] Opening '/config/transcodes/814947a12b1752b7fe502c06f18e612c127.ts' for writing
frame= 5792 fps=100 q=27.0 size=N/A time=00:06:24.47 bitrate=N/A speed=6.67x    
[hls @ 0x55e0951463c0] Opening '/config/transcodes/814947a12b1752b7fe502c06f18e612c128.ts' for writing
frame= 5842 fps=100 q=27.0 size=N/A time=00:06:28.00 bitrate=N/A speed=6.67x    
[hls @ 0x55e0951463c0] Opening '/config/transcodes/814947a12b1752b7fe502c06f18e612c129.ts' for writing
frame= 5895 fps=100 q=27.0 size=N/A time=00:06:31.53 bitrate=N/A speed=6.67x    
[hls @ 0x55e0951463c0] Opening '/config/transcodes/814947a12b1752b7fe502c06f18e612c130.ts' for writing
frame= 5939 fps=100 q=27.0 size=N/A time=00:06:34.32 bitrate=N/A speed=6.66x    
[hls @ 0x55e0951463c0] Opening '/config/transcodes/814947a12b1752b7fe502c06f18e612c131.ts' for writing
frame= 5985 fps=100 q=27.0 size=N/A time=00:06:37.66 bitrate=N/A speed=6.66x    
[hls @ 0x55e0951463c0] Opening '/config/transcodes/814947a12b1752b7fe502c06f18e612c132.ts' for writing
frame= 6032 fps=100 q=27.0 size=N/A time=00:06:40.63 bitrate=N/A speed=6.65x    
[hls @ 0x55e0951463c0] Opening '/config/transcodes/814947a12b1752b7fe502c06f18e612c133.ts' for writing
frame= 6085 fps=100 q=27.0 size=N/A time=00:06:44.00 bitrate=N/A speed=6.65x    
[hls @ 0x55e0951463c0] Opening '/config/transcodes/814947a12b1752b7fe502c06f18e612c134.ts' for writing
frame= 6134 fps=100 q=27.0 size=N/A time=00:06:47.26 bitrate=N/A speed=6.65x    
[hls @ 0x55e0951463c0] Opening '/config/transcodes/814947a12b1752b7fe502c06f18e612c135.ts' for writing
frame= 6182 fps=100 q=27.0 size=N/A time=00:06:50.48 bitrate=N/A speed=6.65x    
[hls @ 0x55e0951463c0] Opening '/config/transcodes/814947a12b1752b7fe502c06f18e612c136.ts' for writing
frame= 6220 fps=100 q=27.0 size=N/A time=00:06:53.26 bitrate=N/A speed=6.64x    
[hls @ 0x55e0951463c0] Opening '/config/transcodes/814947a12b1752b7fe502c06f18e612c137.ts' for writing
frame= 6277 fps=100 q=27.0 size=N/A time=00:06:56.80 bitrate=N/A speed=6.64x    
[hls @ 0x55e0951463c0] Opening '/config/transcodes/814947a12b1752b7fe502c06f18e612c138.ts' for writing
[hls @ 0x55e0951463c0] Opening '/config/transcodes/814947a12b1752b7fe502c06f18e612c139.ts' for writing
frame= 6325 fps=100 q=27.0 size=N/A time=00:07:00.00 bitrate=N/A speed=6.64x    
[hls @ 0x55e0951463c0] Opening '/config/transcodes/814947a12b1752b7fe502c06f18e612c140.ts' for writing
frame= 6377 fps=100 q=27.0 size=N/A time=00:07:03.67 bitrate=N/A speed=6.65x    
[hls @ 0x55e0951463c0] Opening '/config/transcodes/814947a12b1752b7fe502c06f18e612c141.ts' for writing
frame= 6425 fps=100 q=27.0 size=N/A time=00:07:06.66 bitrate=N/A speed=6.64x    
[hls @ 0x55e0951463c0] Opening '/config/transcodes/814947a12b1752b7fe502c06f18e612c142.ts' for writing
frame= 6477 fps=100 q=27.0 size=N/A time=00:07:10.13 bitrate=N/A speed=6.64x    
[hls @ 0x55e0951463c0] Opening '/config/transcodes/814947a12b1752b7fe502c06f18e612c143.ts' for writing
frame= 6527 fps=100 q=27.0 size=N/A time=00:07:13.70 bitrate=N/A speed=6.65x    
[hls @ 0x55e0951463c0] Opening '/config/transcodes/814947a12b1752b7fe502c06f18e612c144.ts' for writing
frame= 6578 fps=100 q=27.0 size=N/A time=00:07:17.23 bitrate=N/A speed=6.65x    
[hls @ 0x55e0951463c0] Opening '/config/transcodes/814947a12b1752b7fe502c06f18e612c145.ts' for writing
frame= 6625 fps=100 q=27.0 size=N/A time=00:07:20.01 bitrate=N/A speed=6.64x    
[hls @ 0x55e0951463c0] Opening '/config/transcodes/814947a12b1752b7fe502c06f18e612c146.ts' for writing
frame= 6675 fps=100 q=27.0 size=N/A time=00:07:23.36 bitrate=N/A speed=6.64x    
[hls @ 0x55e0951463c0] Opening '/config/transcodes/814947a12b1752b7fe502c06f18e612c147.ts' for writing
frame= 6720 fps=100 q=27.0 size=N/A time=00:07:26.70 bitrate=N/A speed=6.64x    
[hls @ 0x55e0951463c0] Opening '/config/transcodes/814947a12b1752b7fe502c06f18e612c148.ts' for writing
[hls @ 0x55e0951463c0] Opening '/config/transcodes/814947a12b1752b7fe502c06f18e612c149.ts' for writing
frame= 6778 fps=100 q=27.0 size=N/A time=00:07:30.42 bitrate=N/A speed=6.65x    
[hls @ 0x55e0951463c0] Opening '/config/transcodes/814947a12b1752b7fe502c06f18e612c150.ts' for writing
frame= 6830 fps=100 q=27.0 size=N/A time=00:07:33.95 bitrate=N/A speed=6.65x    
[hls @ 0x55e0951463c0] Opening '/config/transcodes/814947a12b1752b7fe502c06f18e612c151.ts' for writing
frame= 6885 fps=100 q=27.0 size=N/A time=00:07:37.33 bitrate=N/A speed=6.65x    
[hls @ 0x55e0951463c0] Opening '/config/transcodes/814947a12b1752b7fe502c06f18e612c152.ts' for writing
frame= 6929 fps=100 q=27.0 size=N/A time=00:07:40.63 bitrate=N/A speed=6.65x    
[hls @ 0x55e0951463c0] Opening '/config/transcodes/814947a12b1752b7fe502c06f18e612c153.ts' for writing
frame= 6977 fps=100 q=27.0 size=N/A time=00:07:43.60 bitrate=N/A speed=6.64x    
[hls @ 0x55e0951463c0] Opening '/config/transcodes/814947a12b1752b7fe502c06f18e612c154.ts' for writing
frame= 7028 fps=100 q=27.0 size=N/A time=00:07:47.13 bitrate=N/A speed=6.65x    
[hls @ 0x55e0951463c0] Opening '/config/transcodes/814947a12b1752b7fe502c06f18e612c155.ts' for writing
frame= 7085 fps=100 q=27.0 size=N/A time=00:07:51.04 bitrate=N/A speed=6.65x    
[hls @ 0x55e0951463c0] Opening '/config/transcodes/814947a12b1752b7fe502c06f18e612c156.ts' for writing
[hls @ 0x55e0951463c0] Opening '/config/transcodes/814947a12b1752b7fe502c06f18e612c157.ts' for writing
frame= 7135 fps=100 q=27.0 size=N/A time=00:07:54.38 bitrate=N/A speed=6.65x    
[hls @ 0x55e0951463c0] Opening '/config/transcodes/814947a12b1752b7fe502c06f18e612c158.ts' for writing
frame= 7191 fps=100 q=27.0 size=N/A time=00:07:57.73 bitrate=N/A speed=6.65x    
[hls @ 0x55e0951463c0] Opening '/config/transcodes/814947a12b1752b7fe502c06f18e612c159.ts' for writing
frame= 7244 fps=100 q=27.0 size=N/A time=00:08:01.26 bitrate=N/A speed=6.66x    
[hls @ 0x55e0951463c0] Opening '/config/transcodes/814947a12b1752b7fe502c06f18e612c160.ts' for writing
frame= 7295 fps=100 q=27.0 size=N/A time=00:08:04.97 bitrate=N/A speed=6.66x    
[hls @ 0x55e0951463c0] Opening '/config/transcodes/814947a12b1752b7fe502c06f18e612c161.ts' for writing
frame= 7347 fps=100 q=27.0 size=N/A time=00:08:08.31 bitrate=N/A speed=6.66x    
[hls @ 0x55e0951463c0] Opening '/config/transcodes/814947a12b1752b7fe502c06f18e612c162.ts' for writing
frame= 7398 fps=100 q=27.0 size=N/A time=00:08:11.65 bitrate=N/A speed=6.66x    
[hls @ 0x55e0951463c0] Opening '/config/transcodes/814947a12b1752b7fe502c06f18e612c163.ts' for writing
[hls @ 0x55e0951463c0] Opening '/config/transcodes/814947a12b1752b7fe502c06f18e612c164.ts' for writing
frame= 7454 fps=100 q=27.0 size=N/A time=00:08:15.56 bitrate=N/A speed=6.66x    
[hls @ 0x55e0951463c0] Opening '/config/transcodes/814947a12b1752b7fe502c06f18e612c165.ts' for writing
frame= 7515 fps=100 q=27.0 size=N/A time=00:08:19.46 bitrate=N/A speed=6.67x    
[hls @ 0x55e0951463c0] Opening '/config/transcodes/814947a12b1752b7fe502c06f18e612c166.ts' for writing
frame= 7570 fps=100 q=27.0 size=N/A time=00:08:23.00 bitrate=N/A speed=6.67x    
[hls @ 0x55e0951463c0] Opening '/config/transcodes/814947a12b1752b7fe502c06f18e612c167.ts' for writing
[hls @ 0x55e0951463c0] Opening '/config/transcodes/814947a12b1752b7fe502c06f18e612c168.ts' for writing
frame= 7630 fps=101 q=27.0 size=N/A time=00:08:27.07 bitrate=N/A speed=6.68x    
[hls @ 0x55e0951463c0] Opening '/config/transcodes/814947a12b1752b7fe502c06f18e612c169.ts' for writing
frame= 7678 fps=100 q=27.0 size=N/A time=00:08:30.42 bitrate=N/A speed=6.68x    
[hls @ 0x55e0951463c0] Opening '/config/transcodes/814947a12b1752b7fe502c06f18e612c170.ts' for writing
frame= 7731 fps=101 q=27.0 size=N/A time=00:08:33.95 bitrate=N/A speed=6.68x    
[hls @ 0x55e0951463c0] Opening '/config/transcodes/814947a12b1752b7fe502c06f18e612c171.ts' for writing
frame= 7779 fps=100 q=27.0 size=N/A time=00:08:37.06 bitrate=N/A speed=6.68x    
[hls @ 0x55e0951463c0] Opening '/config/transcodes/814947a12b1752b7fe502c06f18e612c172.ts' for writing
frame= 7829 fps=100 q=27.0 size=N/A time=00:08:40.63 bitrate=N/A speed=6.68x    
[hls @ 0x55e0951463c0] Opening '/config/transcodes/814947a12b1752b7fe502c06f18e612c173.ts' for writing
frame= 7884 fps=101 q=27.0 size=N/A time=00:08:43.98 bitrate=N/A speed=6.68x    
[hls @ 0x55e0951463c0] Opening '/config/transcodes/814947a12b1752b7fe502c06f18e612c174.ts' for writing
frame= 7939 fps=101 q=27.0 size=N/A time=00:08:47.88 bitrate=N/A speed=6.69x    
[hls @ 0x55e0951463c0] Opening '/config/transcodes/814947a12b1752b7fe502c06f18e612c175.ts' for writing
[hls @ 0x55e0951463c0] Opening '/config/transcodes/814947a12b1752b7fe502c06f18e612c176.ts' for writing
frame= 7989 fps=101 q=27.0 size=N/A time=00:08:51.22 bitrate=N/A speed=6.69x    
[hls @ 0x55e0951463c0] Opening '/config/transcodes/814947a12b1752b7fe502c06f18e612c177.ts' for writing
frame= 8046 fps=101 q=27.0 size=N/A time=00:08:54.94 bitrate=N/A speed=6.69x    
[hls @ 0x55e0951463c0] Opening '/config/transcodes/814947a12b1752b7fe502c06f18e612c178.ts' for writing
frame= 8097 fps=101 q=27.0 size=N/A time=00:08:58.47 bitrate=N/A speed=6.69x    
[hls @ 0x55e0951463c0] Opening '/config/transcodes/814947a12b1752b7fe502c06f18e612c179.ts' for writing
frame= 8155 fps=101 q=27.0 size=N/A time=00:09:02.00 bitrate=N/A speed=6.69x    
[hls @ 0x55e0951463c0] Opening '/config/transcodes/814947a12b1752b7fe502c06f18e612c180.ts' for writing
frame= 8196 fps=101 q=27.0 size=N/A time=00:09:04.73 bitrate=N/A speed=6.69x    
[hls @ 0x55e0951463c0] Opening '/config/transcodes/814947a12b1752b7fe502c06f18e612c181.ts' for writing
frame= 8247 fps=101 q=27.0 size=N/A time=00:09:08.50 bitrate=N/A speed=6.69x    
[hls @ 0x55e0951463c0] Opening '/config/transcodes/814947a12b1752b7fe502c06f18e612c182.ts' for writing
frame= 8300 fps=101 q=27.0 size=N/A time=00:09:11.66 bitrate=N/A speed=6.69x    
[hls @ 0x55e0951463c0] Opening '/config/transcodes/814947a12b1752b7fe502c06f18e612c183.ts' for writing
[hls @ 0x55e0951463c0] Opening '/config/transcodes/814947a12b1752b7fe502c06f18e612c184.ts' for writing
frame= 8351 fps=101 q=27.0 size=N/A time=00:09:15.06 bitrate=N/A speed=6.69x    
[hls @ 0x55e0951463c0] Opening '/config/transcodes/814947a12b1752b7fe502c06f18e612c185.ts' for writing
frame= 8411 fps=101 q=27.0 size=N/A time=00:09:19.27 bitrate=N/A speed= 6.7x    
[hls @ 0x55e0951463c0] Opening '/config/transcodes/814947a12b1752b7fe502c06f18e612c186.ts' for writing
frame= 8454 fps=101 q=27.0 size=N/A time=00:09:22.24 bitrate=N/A speed=6.69x    
[hls @ 0x55e0951463c0] Opening '/config/transcodes/814947a12b1752b7fe502c06f18e612c187.ts' for writing
frame= 8504 fps=101 q=27.0 size=N/A time=00:09:25.59 bitrate=N/A speed=6.69x    
[hls @ 0x55e0951463c0] Opening '/config/transcodes/814947a12b1752b7fe502c06f18e612c188.ts' for writing
frame= 8562 fps=101 q=27.0 size=N/A time=00:09:29.13 bitrate=N/A speed= 6.7x    
[hls @ 0x55e0951463c0] Opening '/config/transcodes/814947a12b1752b7fe502c06f18e612c189.ts' for writing
frame= 8612 fps=101 q=27.0 size=N/A time=00:09:32.65 bitrate=N/A speed= 6.7x    
[hls @ 0x55e0951463c0] Opening '/config/transcodes/814947a12b1752b7fe502c06f18e612c190.ts' for writing
frame= 8660 fps=101 q=27.0 size=N/A time=00:09:35.66 bitrate=N/A speed=6.69x    
[hls @ 0x55e0951463c0] Opening '/config/transcodes/814947a12b1752b7fe502c06f18e612c191.ts' for writing
[hls @ 0x55e0951463c0] Opening '/config/transcodes/814947a12b1752b7fe502c06f18e612c192.ts' for writing
frame= 8712 fps=101 q=27.0 size=N/A time=00:09:39.33 bitrate=N/A speed=6.69x    
[hls @ 0x55e0951463c0] Opening '/config/transcodes/814947a12b1752b7fe502c06f18e612c193.ts' for writing
frame= 8760 fps=101 q=27.0 size=N/A time=00:09:42.68 bitrate=N/A speed=6.69x    
[hls @ 0x55e0951463c0] Opening '/config/transcodes/814947a12b1752b7fe502c06f18e612c194.ts' for writing
frame= 8803 fps=101 q=27.0 size=N/A time=00:09:45.46 bitrate=N/A speed=6.69x    
[hls @ 0x55e0951463c0] Opening '/config/transcodes/814947a12b1752b7fe502c06f18e612c195.ts' for writing
frame= 8860 fps=101 q=27.0 size=N/A time=00:09:49.36 bitrate=N/A speed=6.69x    
[hls @ 0x55e0951463c0] Opening '/config/transcodes/814947a12b1752b7fe502c06f18e612c196.ts' for writing
frame= 8917 fps=101 q=27.0 size=N/A time=00:09:52.80 bitrate=N/A speed=6.69x    
[hls @ 0x55e0951463c0] Opening '/config/transcodes/814947a12b1752b7fe502c06f18e612c197.ts' for writing
frame= 8966 fps=101 q=27.0 size=N/A time=00:09:56.24 bitrate=N/A speed=6.69x    
[hls @ 0x55e0951463c0] Opening '/config/transcodes/814947a12b1752b7fe502c06f18e612c198.ts' for writing
frame= 9010 fps=101 q=27.0 size=N/A time=00:09:59.21 bitrate=N/A speed=6.69x    
[hls @ 0x55e0951463c0] Opening '/config/transcodes/814947a12b1752b7fe502c06f18e612c199.ts' for writing
frame= 9059 fps=101 q=27.0 size=N/A time=00:10:02.55 bitrate=N/A speed=6.69x    
[hls @ 0x55e0951463c0] Opening '/config/transcodes/814947a12b1752b7fe502c06f18e612c200.ts' for writing
frame= 9092 fps=100 q=27.0 size=N/A time=00:10:04.60 bitrate=N/A speed=6.67x    
[hls @ 0x55e0951463c0] Opening '/config/transcodes/814947a12b1752b7fe502c06f18e612c201.ts' for writing
frame= 9121 fps=100 q=27.0 size=N/A time=00:10:06.45 bitrate=N/A speed=6.66x    
[hls @ 0x55e0951463c0] Opening '/config/transcodes/814947a12b1752b7fe502c06f18e612c202.ts' for writing
frame= 9159 fps=100 q=27.0 size=N/A time=00:10:09.24 bitrate=N/A speed=6.65x    
[hls @ 0x55e0951463c0] Opening '/config/transcodes/814947a12b1752b7fe502c06f18e612c203.ts' for writing
frame= 9217 fps=100 q=27.0 size=N/A time=00:10:12.96 bitrate=N/A speed=6.66x    
[hls @ 0x55e0951463c0] Opening '/config/transcodes/814947a12b1752b7fe502c06f18e612c204.ts' for writing
frame= 9271 fps=100 q=27.0 size=N/A time=00:10:16.67 bitrate=N/A speed=6.66x    
[hls @ 0x55e0951463c0] Opening '/config/transcodes/814947a12b1752b7fe502c06f18e612c205.ts' for writing
frame= 9325 fps=100 q=27.0 size=N/A time=00:10:20.00 bitrate=N/A speed=6.66x    
[hls @ 0x55e0951463c0] Opening '/config/transcodes/814947a12b1752b7fe502c06f18e612c206.ts' for writing
frame= 9375 fps=100 q=27.0 size=N/A time=00:10:23.54 bitrate=N/A speed=6.66x    
[hls @ 0x55e0951463c0] Opening '/config/transcodes/814947a12b1752b7fe502c06f18e612c207.ts' for writing
frame= 9427 fps=100 q=27.0 size=N/A time=00:10:27.07 bitrate=N/A speed=6.66x    
[hls @ 0x55e0951463c0] Opening '/config/transcodes/814947a12b1752b7fe502c06f18e612c208.ts' for writing
[hls @ 0x55e0951463c0] Opening '/config/transcodes/814947a12b1752b7fe502c06f18e612c209.ts' for writing
frame= 9477 fps=100 q=27.0 size=N/A time=00:10:30.42 bitrate=N/A speed=6.66x    
[hls @ 0x55e0951463c0] Opening '/config/transcodes/814947a12b1752b7fe502c06f18e612c210.ts' for writing
frame= 9532 fps=100 q=27.0 size=N/A time=00:10:33.80 bitrate=N/A speed=6.66x    
[hls @ 0x55e0951463c0] Opening '/config/transcodes/814947a12b1752b7fe502c06f18e612c211.ts' for writing
frame= 9576 fps=100 q=27.0 size=N/A time=00:10:37.10 bitrate=N/A speed=6.66x    
[hls @ 0x55e0951463c0] Opening '/config/transcodes/814947a12b1752b7fe502c06f18e612c212.ts' for writing
frame= 9633 fps=100 q=27.0 size=N/A time=00:10:40.63 bitrate=N/A speed=6.66x    
[hls @ 0x55e0951463c0] Opening '/config/transcodes/814947a12b1752b7fe502c06f18e612c213.ts' for writing
frame= 9693 fps=100 q=27.0 size=N/A time=00:10:44.91 bitrate=N/A speed=6.67x    
[hls @ 0x55e0951463c0] Opening '/config/transcodes/814947a12b1752b7fe502c06f18e612c214.ts' for writing
[hls @ 0x55e0951463c0] Opening '/config/transcodes/814947a12b1752b7fe502c06f18e612c215.ts' for writing
frame= 9751 fps=100 q=27.0 size=N/A time=00:10:48.62 bitrate=N/A speed=6.68x    
[hls @ 0x55e0951463c0] Opening '/config/transcodes/814947a12b1752b7fe502c06f18e612c216.ts' for writing
frame= 9804 fps=100 q=27.0 size=N/A time=00:10:52.15 bitrate=N/A speed=6.68x    
[hls @ 0x55e0951463c0] Opening '/config/transcodes/814947a12b1752b7fe502c06f18e612c217.ts' for writing
frame= 9855 fps=100 q=27.0 size=N/A time=00:10:55.68 bitrate=N/A speed=6.68x    
[hls @ 0x55e0951463c0] Opening '/config/transcodes/814947a12b1752b7fe502c06f18e612c218.ts' for writing
frame= 9913 fps=100 q=27.0 size=N/A time=00:10:59.21 bitrate=N/A speed=6.68x    
[hls @ 0x55e0951463c0] Opening '/config/transcodes/814947a12b1752b7fe502c06f18e612c219.ts' for writing
frame= 9966 fps=101 q=27.0 size=N/A time=00:11:02.92 bitrate=N/A speed=6.69x    
[hls @ 0x55e0951463c0] Opening '/config/transcodes/814947a12b1752b7fe502c06f18e612c220.ts' for writing
[hls @ 0x55e0951463c0] Opening '/config/transcodes/814947a12b1752b7fe502c06f18e612c221.ts' for writing
frame=10016 fps=100 q=27.0 size=N/A time=00:11:06.27 bitrate=N/A speed=6.69x    
[hls @ 0x55e0951463c0] Opening '/config/transcodes/814947a12b1752b7fe502c06f18e612c222.ts' for writing
frame=10061 fps=100 q=27.0 size=N/A time=00:11:09.24 bitrate=N/A speed=6.68x    
[hls @ 0x55e0951463c0] Opening '/config/transcodes/814947a12b1752b7fe502c06f18e612c223.ts' for writing
frame=10117 fps=100 q=27.0 size=N/A time=00:11:13.14 bitrate=N/A speed=6.69x    
[hls @ 0x55e0951463c0] Opening '/config/transcodes/814947a12b1752b7fe502c06f18e612c224.ts' for writing
frame=10170 fps=101 q=27.0 size=N/A time=00:11:16.67 bitrate=N/A speed=6.69x    
[hls @ 0x55e0951463c0] Opening '/config/transcodes/814947a12b1752b7fe502c06f18e612c225.ts' for writing
frame=10225 fps=101 q=27.0 size=N/A time=00:11:20.01 bitrate=N/A speed=6.69x    
[hls @ 0x55e0951463c0] Opening '/config/transcodes/814947a12b1752b7fe502c06f18e612c226.ts' for writing
frame=10267 fps=100 q=27.0 size=N/A time=00:11:23.17 bitrate=N/A speed=6.69x    
[hls @ 0x55e0951463c0] Opening '/config/transcodes/814947a12b1752b7fe502c06f18e612c227.ts' for writing
frame=10317 fps=100 q=27.0 size=N/A time=00:11:26.33 bitrate=N/A speed=6.68x    
[hls @ 0x55e0951463c0] Opening '/config/transcodes/814947a12b1752b7fe502c06f18e612c228.ts' for writing
[hls @ 0x55e0951463c0] Opening '/config/transcodes/814947a12b1752b7fe502c06f18e612c229.ts' for writing
frame=10376 fps=101 q=27.0 size=N/A time=00:11:30.23 bitrate=N/A speed=6.69x    
[hls @ 0x55e0951463c0] Opening '/config/transcodes/814947a12b1752b7fe502c06f18e612c230.ts' for writing
frame=10435 fps=101 q=27.0 size=N/A time=00:11:34.32 bitrate=N/A speed= 6.7x    
[hls @ 0x55e0951463c0] Opening '/config/transcodes/814947a12b1752b7fe502c06f18e612c231.ts' for writing
frame=10493 fps=101 q=27.0 size=N/A time=00:11:38.03 bitrate=N/A speed= 6.7x    
[hls @ 0x55e0951463c0] Opening '/config/transcodes/814947a12b1752b7fe502c06f18e612c232.ts' for writing
frame=10543 fps=101 q=27.0 size=N/A time=00:11:41.56 bitrate=N/A speed= 6.7x    
[hls @ 0x55e0951463c0] Opening '/config/transcodes/814947a12b1752b7fe502c06f18e612c233.ts' for writing
frame=10593 fps=101 q=27.0 size=N/A time=00:11:44.91 bitrate=N/A speed= 6.7x    
[hls @ 0x55e0951463c0] Opening '/config/transcodes/814947a12b1752b7fe502c06f18e612c234.ts' for writing
frame=10643 fps=101 q=27.0 size=N/A time=00:11:48.25 bitrate=N/A speed= 6.7x    
[hls @ 0x55e0951463c0] Opening '/config/transcodes/814947a12b1752b7fe502c06f18e612c235.ts' for writing
[hls @ 0x55e0951463c0] Opening '/config/transcodes/814947a12b1752b7fe502c06f18e612c236.ts' for writing
frame=10694 fps=101 q=27.0 size=N/A time=00:11:51.41 bitrate=N/A speed= 6.7x    
[hls @ 0x55e0951463c0] Opening '/config/transcodes/814947a12b1752b7fe502c06f18e612c237.ts' for writing
frame=10755 fps=101 q=27.0 size=N/A time=00:11:55.49 bitrate=N/A speed= 6.7x    
[hls @ 0x55e0951463c0] Opening '/config/transcodes/814947a12b1752b7fe502c06f18e612c238.ts' for writing
frame=10811 fps=101 q=27.0 size=N/A time=00:11:59.21 bitrate=N/A speed=6.71x    
[hls @ 0x55e0951463c0] Opening '/config/transcodes/814947a12b1752b7fe502c06f18e612c239.ts' for writing
frame=10866 fps=101 q=27.0 size=N/A time=00:12:02.93 bitrate=N/A speed=6.71x    
[hls @ 0x55e0951463c0] Opening '/config/transcodes/814947a12b1752b7fe502c06f18e612c240.ts' for writing
[hls @ 0x55e0951463c0] Opening '/config/transcodes/814947a12b1752b7fe502c06f18e612c241.ts' for writing
frame=10916 fps=101 q=27.0 size=N/A time=00:12:06.45 bitrate=N/A speed=6.71x    
[hls @ 0x55e0951463c0] Opening '/config/transcodes/814947a12b1752b7fe502c06f18e612c242.ts' for writing
frame=10975 fps=101 q=27.0 size=N/A time=00:12:10.17 bitrate=N/A speed=6.71x    
[hls @ 0x55e0951463c0] Opening '/config/transcodes/814947a12b1752b7fe502c06f18e612c243.ts' for writing
frame=11023 fps=101 q=27.0 size=N/A time=00:12:13.20 bitrate=N/A speed=6.71x    
[hls @ 0x55e0951463c0] Opening '/config/transcodes/814947a12b1752b7fe502c06f18e612c244.ts' for writing
frame=11075 fps=101 q=27.0 size=N/A time=00:12:17.04 bitrate=N/A speed=6.71x    
[hls @ 0x55e0951463c0] Opening '/config/transcodes/814947a12b1752b7fe502c06f18e612c245.ts' for writing
frame=11132 fps=101 q=27.0 size=N/A time=00:12:20.46 bitrate=N/A speed=6.71x    
[hls @ 0x55e0951463c0] Opening '/config/transcodes/814947a12b1752b7fe502c06f18e612c246.ts' for writing
[hls @ 0x55e0951463c0] Opening '/config/transcodes/814947a12b1752b7fe502c06f18e612c247.ts' for writing
frame=11187 fps=101 q=27.0 size=N/A time=00:12:24.29 bitrate=N/A speed=6.72x    
[hls @ 0x55e0951463c0] Opening '/config/transcodes/814947a12b1752b7fe502c06f18e612c248.ts' for writing
frame=11236 fps=101 q=27.0 size=N/A time=00:12:27.63 bitrate=N/A speed=6.72x    
[hls @ 0x55e0951463c0] Opening '/config/transcodes/814947a12b1752b7fe502c06f18e612c249.ts' for writing
frame=11287 fps=101 q=27.0 size=N/A time=00:12:30.97 bitrate=N/A speed=6.72x    
[hls @ 0x55e0951463c0] Opening '/config/transcodes/814947a12b1752b7fe502c06f18e612c250.ts' for writing
frame=11335 fps=101 q=27.0 size=N/A time=00:12:34.32 bitrate=N/A speed=6.72x    
[hls @ 0x55e0951463c0] Opening '/config/transcodes/814947a12b1752b7fe502c06f18e612c251.ts' for writing
[hls @ 0x55e0951463c0] Opening '/config/transcodes/814947a12b1752b7fe502c06f18e612c252.ts' for writing
frame=11348 fps=101 q=-1.0 Lsize=N/A time=00:12:36.59 bitrate=N/A speed=6.72x    
video:27588kB audio:18670kB subtitle:0kB other streams:0kB global headers:0kB muxing overhead: unknown
[libx264 @ 0x55e09514d500] frame I:253   Avg QP:11.17  size:102445
[libx264 @ 0x55e09514d500] frame P:2782  Avg QP:14.08  size:   545
[libx264 @ 0x55e09514d500] frame B:8313  Avg QP:16.10  size:    98
[libx264 @ 0x55e09514d500] consecutive B-frames:  2.3%  0.0%  0.1% 97.5%
[libx264 @ 0x55e09514d500] mb I  I16..4: 74.1%  0.0% 25.9%
[libx264 @ 0x55e09514d500] mb P  I16..4:  0.4%  0.0%  0.0%  P16..4:  0.8%  0.0%  0.0%  0.0%  0.0%    skip:98.8%
[libx264 @ 0x55e09514d500] mb B  I16..4:  0.0%  0.0%  0.0%  B16..8:  0.1%  0.0%  0.0%  direct: 0.1%  skip:99.8%  L0:36.6% L1:62.7% BI: 0.6%
[libx264 @ 0x55e09514d500] coded y,uvDC,uvAC intra: 20.6% 26.5% 20.6% inter: 0.0% 0.2% 0.0%
[libx264 @ 0x55e09514d500] i16 v,h,dc,p: 73% 25%  1%  0%
[libx264 @ 0x55e09514d500] i4 v,h,dc,ddl,ddr,vr,hd,vl,hu: 35% 27% 10%  5%  4%  4%  4%  5%  6%
[libx264 @ 0x55e09514d500] i8c dc,h,v,p: 60% 27% 10%  3%
[libx264 @ 0x55e09514d500] Weighted P-Frames: Y:0.0% UV:0.0%
[libx264 @ 0x55e09514d500] kb/s:298.73
[aac @ 0x55e095142600] Qavg: 65536.000